<?xml version="1.0" encoding="UTF-8" standalone="no"?>
<!-- Generator: Adobe Illustrator 16.0.0, SVG Export Plug-In . SVG Version: 6.00 Build 0)  -->

<svg
   xmlns:dc="http://purl.org/dc/elements/1.1/"
   xmlns:cc="http://creativecommons.org/ns#"
   xmlns:rdf="http://www.w3.org/1999/02/22-rdf-syntax-ns#"
   xmlns:svg="http://www.w3.org/2000/svg"
   xmlns="http://www.w3.org/2000/svg"
   xmlns:sodipodi="http://sodipodi.sourceforge.net/DTD/sodipodi-0.dtd"
   xmlns:inkscape="http://www.inkscape.org/namespaces/inkscape"
   version="1.1"
   id="_x3C_Layer_x3E_"
   x="0px"
   y="0px"
   width="802.01697"
   height="406.57401"
   viewBox="0 0 802.01697 406.57401"
   enable-background="new 0 0 1017 785"
   xml:space="preserve"
   sodipodi:docname="attempt.svg"
   inkscape:version="0.92.4 (unknown)"><metadata
   id="metadata3879"><rdf:RDF><cc:Work
       rdf:about=""><dc:format>image/svg+xml</dc:format><dc:type
         rdf:resource="http://purl.org/dc/dcmitype/StillImage" /><dc:title></dc:title></cc:Work></rdf:RDF></metadata><defs
   id="defs3877"><clipPath
     clipPathUnits="userSpaceOnUse"
     id="clipPath5062"><rect
       style="fill:#f0ff00;fill-opacity:1;stroke:none;stroke-width:3;stroke-miterlimit:4;stroke-dasharray:3, 3;stroke-dashoffset:0;stroke-opacity:1"
       id="rect5064"
       width="806.11951"
       height="412.82245"
       x="136.36777"
       y="-63.734425" /></clipPath><clipPath
     clipPathUnits="userSpaceOnUse"
     id="clipPath5066"><rect
       style="fill:#f0ff00;fill-opacity:1;stroke:none;stroke-width:3;stroke-miterlimit:4;stroke-dasharray:3, 3;stroke-dashoffset:0;stroke-opacity:1"
       id="rect5068"
       width="806.11951"
       height="412.82245"
       x="136.36777"
       y="-63.734425" /></clipPath><clipPath
     clipPathUnits="userSpaceOnUse"
     id="clipPath5070"><rect
       style="fill:#f0ff00;fill-opacity:1;stroke:none;stroke-width:3;stroke-miterlimit:4;stroke-dasharray:3, 3;stroke-dashoffset:0;stroke-opacity:1"
       id="rect5072"
       width="806.11951"
       height="412.82245"
       x="136.36777"
       y="-63.734425" /></clipPath><clipPath
     clipPathUnits="userSpaceOnUse"
     id="clipPath5074"><rect
       style="fill:#f0ff00;fill-opacity:1;stroke:none;stroke-width:3;stroke-miterlimit:4;stroke-dasharray:3, 3;stroke-dashoffset:0;stroke-opacity:1"
       id="rect5076"
       width="806.11951"
       height="412.82245"
       x="136.36777"
       y="-63.734425" /></clipPath><clipPath
     clipPathUnits="userSpaceOnUse"
     id="clipPath5078"><rect
       style="fill:#f0ff00;fill-opacity:1;stroke:none;stroke-width:3;stroke-miterlimit:4;stroke-dasharray:3, 3;stroke-dashoffset:0;stroke-opacity:1"
       id="rect5080"
       width="806.11951"
       height="412.82245"
       x="136.36777"
       y="-63.734425" /></clipPath><clipPath
     clipPathUnits="userSpaceOnUse"
     id="clipPath5082"><rect
       style="fill:#f0ff00;fill-opacity:1;stroke:none;stroke-width:3;stroke-miterlimit:4;stroke-dasharray:3, 3;stroke-dashoffset:0;stroke-opacity:1"
       id="rect5084"
       width="806.11951"
       height="412.82245"
       x="136.36777"
       y="-63.734425" /></clipPath><clipPath
     clipPathUnits="userSpaceOnUse"
     id="clipPath5086"><rect
       style="fill:#f0ff00;fill-opacity:1;stroke:none;stroke-width:3;stroke-miterlimit:4;stroke-dasharray:3, 3;stroke-dashoffset:0;stroke-opacity:1"
       id="rect5088"
       width="806.11951"
       height="412.82245"
       x="136.36777"
       y="-63.734425" /></clipPath><clipPath
     clipPathUnits="userSpaceOnUse"
     id="clipPath5090"><rect
       style="fill:#f0ff00;fill-opacity:1;stroke:none;stroke-width:3;stroke-miterlimit:4;stroke-dasharray:3, 3;stroke-dashoffset:0;stroke-opacity:1"
       id="rect5092"
       width="806.11951"
       height="412.82245"
       x="136.36777"
       y="-63.734425" /></clipPath><clipPath
     clipPathUnits="userSpaceOnUse"
     id="clipPath5094"><rect
       style="fill:#f0ff00;fill-opacity:1;stroke:none;stroke-width:3;stroke-miterlimit:4;stroke-dasharray:3, 3;stroke-dashoffset:0;stroke-opacity:1"
       id="rect5096"
       width="806.11951"
       height="412.82245"
       x="136.36777"
       y="-63.734425" /></clipPath><clipPath
     clipPathUnits="userSpaceOnUse"
     id="clipPath5098"><rect
       style="fill:#f0ff00;fill-opacity:1;stroke:none;stroke-width:3;stroke-miterlimit:4;stroke-dasharray:3, 3;stroke-dashoffset:0;stroke-opacity:1"
       id="rect5100"
       width="806.11951"
       height="412.82245"
       x="136.36777"
       y="-63.734425" /></clipPath><clipPath
     clipPathUnits="userSpaceOnUse"
     id="clipPath5102"><rect
       style="fill:#f0ff00;fill-opacity:1;stroke:none;stroke-width:3;stroke-miterlimit:4;stroke-dasharray:3, 3;stroke-dashoffset:0;stroke-opacity:1"
       id="rect5104"
       width="806.11951"
       height="412.82245"
       x="136.36777"
       y="-63.734425" /></clipPath><clipPath
     clipPathUnits="userSpaceOnUse"
     id="clipPath5106"><rect
       style="fill:#f0ff00;fill-opacity:1;stroke:none;stroke-width:3;stroke-miterlimit:4;stroke-dasharray:3, 3;stroke-dashoffset:0;stroke-opacity:1"
       id="rect5108"
       width="806.11951"
       height="412.82245"
       x="178.38626"
       y="-534.03857"
       transform="rotate(65)" /></clipPath><clipPath
     clipPathUnits="userSpaceOnUse"
     id="clipPath5110"><rect
       style="fill:#f0ff00;fill-opacity:1;stroke:none;stroke-width:3;stroke-miterlimit:4;stroke-dasharray:3, 3;stroke-dashoffset:0;stroke-opacity:1"
       id="rect5112"
       width="806.11951"
       height="412.82245"
       x="178.38626"
       y="-534.03857"
       transform="rotate(65)" /></clipPath><clipPath
     clipPathUnits="userSpaceOnUse"
     id="clipPath5114"><rect
       style="fill:#f0ff00;fill-opacity:1;stroke:none;stroke-width:3;stroke-miterlimit:4;stroke-dasharray:3, 3;stroke-dashoffset:0;stroke-opacity:1"
       id="rect5116"
       width="806.11951"
       height="412.82245"
       x="178.38626"
       y="-534.03857"
       transform="rotate(65)" /></clipPath><clipPath
     clipPathUnits="userSpaceOnUse"
     id="clipPath5118"><rect
       style="fill:#f0ff00;fill-opacity:1;stroke:none;stroke-width:3;stroke-miterlimit:4;stroke-dasharray:3, 3;stroke-dashoffset:0;stroke-opacity:1"
       id="rect5120"
       width="806.11951"
       height="412.82245"
       x="178.38626"
       y="-534.03857"
       transform="rotate(65)" /></clipPath><clipPath
     clipPathUnits="userSpaceOnUse"
     id="clipPath5122"><rect
       style="fill:#f0ff00;fill-opacity:1;stroke:none;stroke-width:3;stroke-miterlimit:4;stroke-dasharray:3, 3;stroke-dashoffset:0;stroke-opacity:1"
       id="rect5124"
       width="806.11951"
       height="412.82245"
       x="213.86449"
       y="195.64868" /></clipPath><clipPath
     clipPathUnits="userSpaceOnUse"
     id="clipPath5126"><rect
       style="fill:#f0ff00;fill-opacity:1;stroke:none;stroke-width:3;stroke-miterlimit:4;stroke-dasharray:3, 3;stroke-dashoffset:0;stroke-opacity:1"
       id="rect5128"
       width="806.11951"
       height="412.82245"
       x="-195.30199"
       y="163.0097" /></clipPath><clipPath
     clipPathUnits="userSpaceOnUse"
     id="clipPath5130"><rect
       style="fill:#f0ff00;fill-opacity:1;stroke:none;stroke-width:3;stroke-miterlimit:4;stroke-dasharray:3, 3;stroke-dashoffset:0;stroke-opacity:1"
       id="rect5132"
       width="806.11951"
       height="412.82245"
       x="205.17151"
       y="1.9700484" /></clipPath><clipPath
     clipPathUnits="userSpaceOnUse"
     id="clipPath5134"><rect
       style="fill:#f0ff00;fill-opacity:1;stroke:none;stroke-width:3;stroke-miterlimit:4;stroke-dasharray:3, 3;stroke-dashoffset:0;stroke-opacity:1"
       id="rect5136"
       width="806.11951"
       height="412.82245"
       x="205.17151"
       y="1.9700484" /></clipPath><clipPath
     clipPathUnits="userSpaceOnUse"
     id="clipPath5138"><rect
       style="fill:#f0ff00;fill-opacity:1;stroke:none;stroke-width:3;stroke-miterlimit:4;stroke-dasharray:3, 3;stroke-dashoffset:0;stroke-opacity:1"
       id="rect5140"
       width="806.11951"
       height="412.82245"
       x="205.17151"
       y="1.9700484" /></clipPath><clipPath
     clipPathUnits="userSpaceOnUse"
     id="clipPath5142"><rect
       style="fill:#f0ff00;fill-opacity:1;stroke:none;stroke-width:3;stroke-miterlimit:4;stroke-dasharray:3, 3;stroke-dashoffset:0;stroke-opacity:1"
       id="rect5144"
       width="806.11951"
       height="412.82245"
       x="205.17151"
       y="1.9700484" /></clipPath><clipPath
     clipPathUnits="userSpaceOnUse"
     id="clipPath5146"><rect
       style="fill:#f0ff00;fill-opacity:1;stroke:none;stroke-width:3;stroke-miterlimit:4;stroke-dasharray:3, 3;stroke-dashoffset:0;stroke-opacity:1"
       id="rect5148"
       width="806.11951"
       height="412.82245"
       x="205.17151"
       y="1.9700484" /></clipPath><clipPath
     clipPathUnits="userSpaceOnUse"
     id="clipPath5150"><rect
       style="fill:#f0ff00;fill-opacity:1;stroke:none;stroke-width:3;stroke-miterlimit:4;stroke-dasharray:3, 3;stroke-dashoffset:0;stroke-opacity:1"
       id="rect5152"
       width="806.11951"
       height="412.82245"
       x="136.36777"
       y="-63.734425" /></clipPath><clipPath
     clipPathUnits="userSpaceOnUse"
     id="clipPath5154"><rect
       style="fill:#f0ff00;fill-opacity:1;stroke:none;stroke-width:3;stroke-miterlimit:4;stroke-dasharray:3, 3;stroke-dashoffset:0;stroke-opacity:1"
       id="rect5156"
       width="806.11951"
       height="412.82245"
       x="136.36777"
       y="-63.734425" /></clipPath></defs><sodipodi:namedview
   pagecolor="#ffffff"
   bordercolor="#666666"
   borderopacity="1"
   objecttolerance="10"
   gridtolerance="10"
   guidetolerance="10"
   inkscape:pageopacity="0"
   inkscape:pageshadow="2"
   inkscape:window-width="3840"
   inkscape:window-height="2060"
   id="namedview3875"
   showgrid="false"
   inkscape:snap-grids="true"
   inkscape:snap-to-guides="true"
   inkscape:snap-object-midpoints="true"
   showguides="false"
   inkscape:zoom="1.1407643"
   inkscape:cx="690.16063"
   inkscape:cy="276.85934"
   inkscape:window-x="1920"
   inkscape:window-y="54"
   inkscape:window-maximized="1"
   inkscape:current-layer="g3872" />
<g
   id="g3872"
   transform="translate(-136.36777,57.485972)">
	
		<rect
   x="-57.147739"
   y="-56.641472"
   width="994.68799"
   height="763.875"
   id="rect3816"
   style="fill:#5b3b10;stroke:#000000;stroke-width:1.68900001;stroke-linejoin:round"
   clip-path="url(#clipPath5154)" />
	
		<rect
   x="-17.959738"
   y="-15.391473"
   width="915.56299"
   height="681.93799"
   id="rect3818"
   style="fill:#008837;stroke:#000000;stroke-width:1.68900001;stroke-linejoin:round"
   clip-path="url(#clipPath5150)" />
	<polygon
   points="66.594,698.5 69.781,705.063 76.344,712 82.531,715.188 90.031,716.313 97.156,715.188 103.531,712 109.906,705.063 113.094,698.5 114.406,690.813 482.094,690.813 483.031,698.5 486.219,705.063 492.781,712 498.969,715.188 506.281,716.313 513.406,715.188 519.781,712 526.344,705.063 529.531,698.5 530.844,690.813 903.219,690.813 904.344,698.5 907.531,705.063 914.094,712 920.281,715.188 927.781,716.313 934.719,715.188 941.281,712 947.656,705.063 950.844,698.5 951.969,690.813 950.844,683.313 947.656,676.75 941.281,669.813 934.719,666.625 934.719,665.313 934.719,115.748 941.281,112.373 947.656,105.438 950.844,98.873 951.969,91.188 950.844,83.873 947.656,77.123 941.281,70.373 934.719,66.998 927.781,65.688 920.281,66.998 914.094,70.373 907.531,77.123 904.344,83.873 903.219,91.188 535.719,91.188 534.406,83.873 531.219,77.123 524.844,70.373 518.281,66.998 511.156,65.688 501.406,67.938 494.094,73.373 488.844,81.438 487.156,91.188 114.594,91.188 113.281,83.688 110.094,77.123 103.531,70.188 97.156,66.998 90.031,65.688 82.719,66.998 76.344,70.188 69.781,77.123 66.594,83.688 65.656,91.188 66.594,98.873 69.781,105.438 76.344,112.373 82.719,115.748 90.031,116.688 90.031,665.313 82.531,666.625 76.344,669.813 69.781,676.75 66.594,683.313 65.656,690.813 "
   id="polygon3820"
   style="fill:#002d12;stroke:#000000;stroke-width:1.68900001;stroke-linejoin:round"
   transform="translate(-68.80374,-65.704473)"
   clip-path="url(#clipPath5146)" />
	
	
	
	
	
	
	
	
	
	
	
	
	
	
	
	
	
	<polygon
   points="11.656,9.248 11.656,70.563 21.406,60.438 21.406,19.563 60.594,19.563 70.344,9.248 "
   id="polygon3856"
   style="fill:#ffa800;stroke:#000000;stroke-width:1.68900001;stroke-linejoin:round"
   transform="translate(-68.80374,-65.704473)"
   clip-path="url(#clipPath5142)" />
	<polygon
   points="11.656,772.75 11.656,711.25 21.406,721.375 21.406,762.438 60.594,762.438 70.344,772.75 "
   id="polygon3858"
   style="fill:#ffa800;stroke:#000000;stroke-width:1.68900001;stroke-linejoin:round"
   transform="translate(-68.80374,-65.704473)"
   clip-path="url(#clipPath5138)" />
	<polygon
   points="1006.156,9.248 1006.156,70.563 996.406,60.438 996.406,19.563 957.219,19.563 947.469,9.248 "
   id="polygon3860"
   style="fill:#ffa800;stroke:#000000;stroke-width:1.68900001;stroke-linejoin:round"
   transform="translate(-68.80374,-65.704473)"
   clip-path="url(#clipPath5134)" />
	<polygon
   points="1006.156,772.75 1006.156,711.25 996.406,721.375 996.406,762.438 957.219,762.438 947.469,772.75 "
   id="polygon3862"
   style="fill:#ffa800;stroke:#000000;stroke-width:1.68900001;stroke-linejoin:round"
   transform="translate(-68.80374,-65.704473)"
   clip-path="url(#clipPath5130)" />
	
	
	
	
<polygon
   transform="translate(331.66975,-226.74413)"
   points="267.969,392.123 265.719,390.998 263.469,390.248 261.219,389.873 258.781,390.248 256.531,390.998 254.469,392.123 252.594,393.623 251.094,395.5 249.969,397.563 249.219,400 249.031,402.438 249.219,404.875 249.969,407.313 251.094,409.563 252.594,411.438 254.469,412.938 256.531,414.063 258.781,415 261.219,415.188 263.469,415 265.719,414.063 267.969,412.938 269.656,411.438 271.156,409.563 272.281,407.313 273.031,404.875 273.406,402.438 273.031,400 272.281,397.563 271.156,395.5 269.656,393.623 "
   id="polygon3854-3"
   style="fill:#ffffff;stroke:#000000;stroke-width:1.68900001;stroke-linejoin:round"
   clip-path="url(#clipPath5126)" /><polygon
   transform="translate(-77.496718,-259.38311)"
   points="794.656,391.188 792.969,389.313 791.094,387.998 789.031,386.873 786.594,386.313 784.156,386.313 781.719,386.873 779.656,387.998 777.781,389.313 776.094,391.188 774.781,393.063 773.656,396.438 773.281,398.875 773.656,401.5 774.219,403.75 775.344,406 776.844,407.875 778.719,409.563 780.781,410.688 783.031,411.25 785.469,411.625 787.719,411.25 789.969,410.688 792.031,409.563 793.906,407.875 795.219,406 796.531,403.75 797.094,401.5 797.469,398.875 797.094,396.438 796.531,394.188 "
   id="polygon3844-2"
   style="fill:#a60053;stroke:#000000;stroke-width:1.68900001;stroke-linejoin:round"
   clip-path="url(#clipPath5122)" /><polygon
   points="375.406,275.688 370.906,276.248 367.531,278.498 365.656,281.688 364.906,286.563 223.156,145.188 224.656,141.438 225.781,138.063 227.469,135.438 228.969,133.373 231.406,131.313 233.844,129.998 236.844,128.688 240.219,126.998 "
   id="polygon3864-7"
   style="fill:#5b3b10;stroke:#000000;stroke-width:1.68900001;stroke-linejoin:round"
   transform="rotate(-65,348.10557,268.12998)"
   clip-path="url(#clipPath5118)" /><polygon
   points="364.906,279.248 364.906,286.563 506.844,427.938 510.406,424.375 375.406,275.688 368.469,275.688 "
   id="polygon3866-0"
   style="fill:#ffff54;stroke:#000000;stroke-width:1.68900001;stroke-linejoin:round"
   transform="rotate(-65,348.10557,268.12998)"
   clip-path="url(#clipPath5114)" /><polygon
   points="513.969,427.75 510.406,431.5 507.219,427.75 510.406,424.188 "
   id="polygon3868-9"
   style="fill:#ffffff;stroke:#000000;stroke-width:1.68900001;stroke-linejoin:round"
   transform="rotate(-65,348.10557,268.12998)"
   clip-path="url(#clipPath5110)" /><polygon
   points="517.344,431.5 513.969,434.875 510.406,431.313 513.969,427.75 "
   id="polygon3870-3"
   style="fill:#fa002a;stroke:#000000;stroke-width:1.68900001;stroke-linejoin:round"
   transform="rotate(-65,348.10557,268.12998)"
   clip-path="url(#clipPath5106)" /><path
   style="fill:none;stroke:#ffffff;stroke-width:3;stroke-linecap:butt;stroke-linejoin:miter;stroke-miterlimit:4;stroke-dasharray:3, 3;stroke-dashoffset:0;stroke-opacity:1"
   d="M 724.60876,132.75913 860.66661,92.468663"
   id="path4855"
   inkscape:connector-curvature="0"
   clip-path="url(#clipPath5102)" /><text
   xml:space="preserve"
   style="font-style:normal;font-weight:normal;font-size:40px;line-height:1.25;font-family:sans-serif;letter-spacing:0px;word-spacing:0px;fill:#000000;fill-opacity:1;stroke:none"
   x="870.27435"
   y="96.807632"
   id="text4859"
   clip-path="url(#clipPath5098)"><tspan
     sodipodi:role="line"
     id="tspan4857"
     x="870.27435"
     y="96.807632">y</tspan></text>
<text
   xml:space="preserve"
   style="font-style:normal;font-weight:normal;font-size:13.82400036px;line-height:1.25;font-family:sans-serif;letter-spacing:0px;word-spacing:0px;fill:#ffffff;fill-opacity:1;stroke:#ffffff;stroke-width:0.34560001;stroke-opacity:1"
   x="862.16235"
   y="95.228813"
   id="text4863"
   clip-path="url(#clipPath5094)"><tspan
     sodipodi:role="line"
     id="tspan4861"
     x="862.16235"
     y="95.228813"
     style="stroke-width:0.34560001">x</tspan></text>
<text
   xml:space="preserve"
   style="font-style:normal;font-weight:normal;font-size:40px;line-height:1.25;font-family:sans-serif;letter-spacing:0px;word-spacing:0px;fill:#000000;fill-opacity:1;stroke:none"
   x="865.31549"
   y="88.439606"
   id="text4869"
   clip-path="url(#clipPath5090)"><tspan
     sodipodi:role="line"
     id="tspan4867"
     x="865.31549"
     y="88.439606">^</tspan></text>
<circle
   style="fill:#000000;fill-opacity:1;stroke:none;stroke-width:4.55367947;stroke-miterlimit:4;stroke-dasharray:4.55367982, 4.55367982;stroke-dashoffset:0;stroke-opacity:1"
   id="path4871"
   cx="707.8783"
   cy="139.58589"
   r="3"
   clip-path="url(#clipPath5086)" /><circle
   style="fill:#000000;fill-opacity:1;stroke:none;stroke-width:4.55367947;stroke-miterlimit:4;stroke-dasharray:4.55367982, 4.55367982;stroke-dashoffset:0;stroke-opacity:1"
   id="path4871-6"
   cx="593.07819"
   cy="175.83385"
   r="3"
   inkscape:transform-center-x="-0.15066653"
   inkscape:transform-center-y="0.76702959"
   clip-path="url(#clipPath5082)" /><text
   xml:space="preserve"
   style="font-style:normal;font-weight:normal;font-size:40px;line-height:1.25;font-family:sans-serif;letter-spacing:0px;word-spacing:0px;fill:#1400ff;fill-opacity:1;stroke:none"
   x="607.92139"
   y="200.78806"
   id="text4895"
   clip-path="url(#clipPath5078)"><tspan
     sodipodi:role="line"
     id="tspan4893"
     x="607.92139"
     y="200.78806"
     style="fill:#0021ff;fill-opacity:1">c</tspan></text>
<text
   xml:space="preserve"
   style="font-style:normal;font-weight:normal;font-size:40px;line-height:1.25;font-family:sans-serif;letter-spacing:0px;word-spacing:0px;fill:#0021ff;fill-opacity:1;stroke:none"
   x="720.57971"
   y="181.5726"
   id="text4899"
   clip-path="url(#clipPath5074)"><tspan
     sodipodi:role="line"
     id="tspan4897"
     x="720.57971"
     y="181.5726">t</tspan></text>
<text
   xml:space="preserve"
   style="font-style:normal;font-weight:normal;font-size:40px;line-height:1.25;font-family:sans-serif;letter-spacing:0px;word-spacing:0px;fill:#ff0000;fill-opacity:1;stroke:none"
   x="434.2074"
   y="294.23099"
   id="text4903"
   clip-path="url(#clipPath5070)"><tspan
     sodipodi:role="line"
     id="tspan4901"
     x="434.2074"
     y="294.23099">θ</tspan></text>
<text
   xml:space="preserve"
   style="font-style:normal;font-weight:normal;font-size:13.82400036px;line-height:1.25;font-family:sans-serif;letter-spacing:0px;word-spacing:0px;fill:#ffffff;fill-opacity:1;stroke:#ffffff;stroke-width:0.34560001;stroke-opacity:1"
   x="846.06555"
   y="41.081699"
   id="text4863-0"
   clip-path="url(#clipPath5066)"><tspan
     sodipodi:role="line"
     id="tspan4861-6"
     x="846.06555"
     y="41.081699"
     style="stroke-width:0.34560001">x</tspan></text>
<text
   xml:space="preserve"
   style="font-style:normal;font-weight:normal;font-size:40px;line-height:1.25;font-family:sans-serif;letter-spacing:0px;word-spacing:0px;fill:#f0ff00;fill-opacity:1;stroke:none"
   x="860.60785"
   y="42.839336"
   id="text4859-2"
   clip-path="url(#clipPath5062)"><tspan
     sodipodi:role="line"
     id="tspan4857-6"
     x="860.60785"
     y="42.839336">y</tspan></text>
</g>
</svg>